<?xml version="1.0" encoding="utf-8"?>
<!-- Generator: Adobe Illustrator 19.0.0, SVG Export Plug-In . SVG Version: 6.00 Build 0)  -->
<svg version="1.1" id="Layer_1" xmlns="http://www.w3.org/2000/svg" xmlns:xlink="http://www.w3.org/1999/xlink" x="0px" y="0px"
	 viewBox="0 0 283.5 283.5" style="enable-background:new 0 0 283.5 283.5;" xml:space="preserve">
<style type="text/css">
	.st0{fill:#E28129;}
</style>
<path id="XMLID_70_" class="st0" d="M226.9,77.2l-1.7-8.6l-2.3-7.6l-2.2-5.9l-3-6.4l-4.5-7.8l-4.7-6.5l-5.7-6.6l-6.8-6.4l-6.3-4.9
	l-7.4-4.7L174.9,8L167,4.9l-6-1.8l-5.7-1.3l-4.8-0.8L143.1,0h-5.5C87.7,0,47.3,40.4,47.3,90.3v3.1l0.3,4l0.3,2.9l0.4,3.4l0.6,3.7
	l1.1,4.9l1.1,3.6L53,122l1.6,3.8l2.1,4.6l3.8,6.9l2.9,4.4c0,0,1,2.7,1.5,3.9c0.1,0.8,0.8,1.7,0.8,1.7l2.4,5.2l4.6,9.8l3.2,6.8
	l8.8,18.8l9.8,21l20.2,43.2l6.4,13.8l1.4,2.9l3.4,7.3l1.4,2.2l2.4,2.5l2.5,1.5l4.4,1.2l6.6-1.1l4.4-3.4l3.1-5.5l5.3-11.5l6.8-14.6
	l6.7-14.3l8.1-17.3l9.6-20.5l20.3-43.5l2.6-5.2l4.7-9.1l4.8-8.9l3.2-7.7l2.7-8.8l1.4-7l0.9-7.8l0.3-7V86L226.9,77.2z M137.6,119.7
	c-16.2,0-29.4-13.1-29.4-29.4c0-16.2,13.2-29.4,29.4-29.4c16.2,0,29.4,13.1,29.4,29.4C167,106.5,153.8,119.7,137.6,119.7z"/>
</svg>
