<?xml version="1.0" encoding="utf-8"?>
<!-- Generator: Adobe Illustrator 19.0.0, SVG Export Plug-In . SVG Version: 6.00 Build 0)  -->
<svg version="1.1" id="Layer_1" xmlns="http://www.w3.org/2000/svg" xmlns:xlink="http://www.w3.org/1999/xlink" x="0px" y="0px"
	 viewBox="0 0 283.5 283.5" style="enable-background:new 0 0 283.5 283.5;" xml:space="preserve">
<style type="text/css">
	.st0{fill:#FFFFFF;}
	.st1{fill:#A53F2C;stroke:#FFFFFF;stroke-miterlimit:10;}
</style>
<rect id="XMLID_1_" x="0" y="0" class="st0" width="283.5" height="283.5"/>
<path id="XMLID_40_" class="st1" d="M255.8,279.5H27.6c-13,0-23.6-10.6-23.6-23.6V27.6C4,14.6,14.6,4,27.6,4h228.2
	c13,0,23.6,10.6,23.6,23.6v228.2C279.5,268.8,268.8,279.5,255.8,279.5z"/>
<circle id="XMLID_39_" class="st0" cx="35.3" cy="95.8" r="20.1"/>
<path id="XMLID_38_" class="st0" d="M66.6,216.3V67.1c0-12.6,10.3-23,23-23h0c12.6,0,23,10.3,23,23v149.2c0,12.6-10.3,23-23,23h0
	C76.9,239.3,66.6,229,66.6,216.3z"/>
<path id="XMLID_35_" class="st0" d="M193.4,216.3V67.1c0-12.6,10.3-23,23-23h0c12.6,0,23,10.3,23,23v149.2c0,12.6-10.3,23-23,23h0
	C203.7,239.3,193.4,229,193.4,216.3z"/>
<path id="XMLID_34_" class="st0" d="M216.3,164.7H67.1c-12.6,0-23-10.3-23-23v0c0-12.6,10.3-23,23-23h149.2c12.6,0,23,10.3,23,23v0
	C239.3,154.4,229,164.7,216.3,164.7z"/>
</svg>
