<?xml version="1.0" encoding="utf-8"?>
<!-- Generator: Adobe Illustrator 19.0.0, SVG Export Plug-In . SVG Version: 6.00 Build 0)  -->
<svg version="1.1" id="Layer_1" xmlns="http://www.w3.org/2000/svg" xmlns:xlink="http://www.w3.org/1999/xlink" x="0px" y="0px"
	 viewBox="-163 255.5 283.5 283.5" style="enable-background:new -163 255.5 283.5 283.5;" xml:space="preserve">
<style type="text/css">
	.st0{fill:#A53F2C;stroke:#FFFFFF;stroke-miterlimit:10;}
	.st1{fill:#FFFFFF;}
</style>
<path id="XMLID_40_" class="st0" d="M92.8,535h-228.2c-13,0-23.6-10.6-23.6-23.6V283.1c0-13,10.6-23.6,23.6-23.6H92.8
	c13,0,23.6,10.6,23.6,23.6v228.2C116.5,524.3,105.8,535,92.8,535z"/>
<circle id="XMLID_39_" class="st1" cx="-127.7" cy="351.3" r="20.1"/>
<path id="XMLID_38_" class="st1" d="M-96.4,471.8V322.6c0-12.6,10.3-23,23-23l0,0c12.6,0,23,10.3,23,23v149.2c0,12.6-10.3,23-23,23
	l0,0C-86.1,494.8-96.4,484.5-96.4,471.8z"/>
<path id="XMLID_35_" class="st1" d="M30.4,471.8V322.6c0-12.6,10.3-23,23-23l0,0c12.6,0,23,10.3,23,23v149.2c0,12.6-10.3,23-23,23
	l0,0C40.7,494.8,30.4,484.5,30.4,471.8z"/>
<path id="XMLID_34_" class="st1" d="M53.3,420.2H-95.9c-12.6,0-23-10.3-23-23l0,0c0-12.6,10.3-23,23-23H53.3c12.6,0,23,10.3,23,23
	l0,0C76.3,409.9,66,420.2,53.3,420.2z"/>
</svg>
